# xmcd
#
# Track frame offsets: 
#        150
#        21035
#        41550
#        60807
#        77102
#        96792
#        116312
#        132875
#        150437
#        170830
#
# Disc length: 2572 seconds
#
# Revision: 0
# Processed by: cddbd v1.5.2PL0 Copyright (c) Steve Scherf et al.
# Submitted via: ExactAudioCopy v1.0b1
#
DISCID=6e0a0a0a
DTITLE=蔡榮祖 - 這裡有愛等我回來
DYEAR=1992
DGENRE=Country
TTITLE0=這裡有愛等我回來
TTITLE1=離別要在下雨天
TTITLE2=關於我和你
TTITLE3=說說你如何愛著我
TTITLE4=一直溫柔
TTITLE5=失約
TTITLE6=給我你真正的自己
TTITLE7=你不會相信
TTITLE8=算得了什麼
TTITLE9=你那張無辜的臉
EXTD=
EXTT0=
EXTT1=
EXTT2=
EXTT3=
EXTT4=
EXTT5=
EXTT6=
EXTT7=
EXTT8=
EXTT9=
PLAYORDER=
